<svg width="300" height="250" xmlns="http://www.w3.org/2000/svg">
 <!-- Created with SVG-edit - http://svg-edit.googlecode.com/ -->
 <g>
  <title>Layer 1</title>
  <path fill="#d4aaff" stroke="#000000" d="m112.864944,231.762665c-10.727615,-8.366211 -22.991714,-3.170166 -34.800964,-3.796967c-10.341431,-8.863525 -22.914963,1.874176 -32.66201,-6.659729c-12.603828,-11.243225 9.247643,-18.281006 4.585411,-31.628876c-0.523636,-19.215118 -8.752312,-36.618713 -17.401527,-52.766754c-6.126022,-12.840424 -3.95462,-27.595428 -5.925865,-41.33345c-7.078285,-9.86438 -14.146461,-22.077911 -5.725708,-34.267273c9.51252,-10.278809 5.042343,-23.800522 1.304047,-35.68663c9.617661,2.830505 20.656624,15.715378 33.311005,13.135574c8.604736,-5.541733 13.829041,-0.062683 15.264511,10.080643c4.510635,13.024384 7.145004,30.838348 21.380402,35.039612c14.951126,4.27002 31.695602,5.21817 43.521027,17.743225c21.623047,20.260284 31.651123,52.198578 30.803986,82.982361c1.959122,14.397217 20.021759,6.754822 28.962128,8.879669c14.989594,-0.6651 29.380737,4.043579 43.889038,7.274414c12.949646,3.445129 23.917786,-7.446198 36.086914,-8.754364c2.056183,12.589752 -13.920013,17.83429 -22.643951,21.712006c-10.357727,4.407501 -21.568481,4.51062 -32.209198,1.279785c-23.001862,-5.735809 -47.380676,-4.229584 -69.236221,5.855164c-11.797119,4.344818 -23.252579,12.569489 -36.08493,11.542389l-2.418091,-0.630798l0,0l0,0z" id="svg_5"/>
  <path fill="#d4aaff" stroke="#000000" d="m115.711761,215.956085c-7.731262,-6.030884 -16.571091,-2.285278 -25.081879,-2.737457c-7.453766,-6.388123 -16.517609,1.350189 -23.541718,-4.799622c-9.084198,-8.104309 6.6633,-13.177399 3.304855,-22.796722c-0.377365,-13.851563 -6.307312,-26.393158 -12.542114,-38.03299c-4.415359,-9.255737 -2.850616,-19.888763 -4.272552,-29.791687c-5.099411,-7.11145 -10.194824,-15.912781 -4.125061,-24.697815c6.855301,-7.407227 3.632523,-17.153717 0.939438,-25.721802c6.931458,2.040421 14.88945,11.32579 24.009003,9.468643c6.200943,-3.995346 9.966125,-0.046295 11.002579,7.265091c3.250931,9.387955 5.147827,22.226715 15.409241,25.254791c10.777588,3.079163 22.844482,3.759644 31.36763,12.789063c15.585876,14.603699 22.813614,37.621796 22.202148,59.809814c1.411316,10.376404 14.43222,4.870117 20.874603,6.399231c10.804352,-0.47995 21.177124,2.914063 31.634644,5.245544c9.332367,2.481079 17.238922,-5.368347 26.010254,-6.310272c1.480713,9.073242 -10.033325,12.853363 -16.322662,15.648254c-7.464661,3.176666 -15.544556,3.25177 -23.214203,0.923157c-16.577942,-4.13446 -34.14888,-3.0495 -49.903549,4.220825c-8.502213,3.128326 -16.75795,9.058868 -26.008209,8.318573l-1.742447,-0.45462l0,0l0,0z" id="svg_6"/>
  <path fill="#d4aaff" stroke="#000000" stroke-width="null" stroke-dasharray="null" stroke-linejoin="null" stroke-linecap="null" d="m114.951874,205.225647c-5.100677,-3.975952 -10.931946,-1.505432 -16.545959,-1.805359c-4.91803,-4.212402 -10.895416,0.89209 -15.5289,-3.166504c-5.992767,-5.344879 4.395081,-8.690216 2.180237,-15.038696c-0.249939,-9.1362 -4.162445,-17.411133 -8.274902,-25.088074c-2.91275,-6.104309 -1.88031,-13.121826 -2.818542,-19.652893c-3.364563,-4.691193 -6.725281,-10.497437 -2.72049,-16.294128c4.521973,-4.887238 2.395569,-11.316437 0.61908,-16.96698c4.57196,1.343872 9.822601,7.471222 15.83844,6.246521c4.091309,-2.637817 6.575317,-0.030762 7.257843,4.791138c2.14563,6.194641 3.397247,14.663757 10.164825,16.661316c7.109802,2.028381 15.07132,2.482086 20.694946,8.436401c10.280182,9.634216 15.048248,24.81897 14.644501,39.45575c0.930542,6.846436 9.520752,3.212677 13.771637,4.222046c7.127106,-0.31723 13.969666,1.922638 20.867981,3.458771c6.158112,1.638062 11.372223,-3.541443 17.157349,-4.162445c0.978607,5.985077 -6.615692,8.478729 -10.764679,10.32251c-4.92572,2.095642 -10.257111,2.147583 -15.315491,0.609467c-10.937714,-2.726257 -22.527191,-2.011047 -32.920807,2.783966c-5.608246,2.06488 -11.054993,5.975464 -17.155426,5.487122l-1.151642,-0.299927l0,0l0,0z" id="svg_10"/>
  <text fill="#000000" stroke-width="0" stroke-dasharray="null" stroke-linejoin="null" stroke-linecap="null" x="372" y="272" id="svg_11" font-size="24" font-family="serif" text-anchor="middle" xml:space="preserve" transform="matrix(20.397095709824498,0,0,2.71875,-7111.71959714684,-481.25) " stroke="#000000"/>
 </g>
</svg>